<svg width="344" height="126" viewBox="0 0 344 126" fill="none" xmlns="http://www.w3.org/2000/svg">
<path d="M5.15625 92V24.125H21.0938V78.9688H49.5938V92H5.15625ZM57.9375 92V24.125H104.906V37.1562H73.875V51.5H102.469V64.5312H73.875V78.9688H105V92H57.9375ZM151.781 44.2812C151.406 39.3125 147.75 36.4062 141.188 36.4062C134.719 36.4062 131.438 39.2188 131.344 43.0625C131.25 47.2812 135.375 49.3438 141.469 50.6562L147.375 52.0625C160.406 54.9688 168 61.4375 168.094 72.3125C168 85.1562 158.062 92.9375 141.188 92.9375C124.312 92.9375 113.344 85.25 113.062 69.6875H128.438C128.812 76.25 133.688 79.625 141 79.625C147.75 79.625 151.781 76.625 151.875 72.3125C151.781 68.375 148.312 66.3125 140.812 64.625L133.688 62.9375C121.969 60.2188 114.844 54.4062 114.844 44.1875C114.75 31.625 125.906 23.1875 141.281 23.1875C156.938 23.1875 166.969 31.7188 167.156 44.2812H151.781Z" fill="#222222"/>
<path d="M188 60C188 42.3269 202.327 28 220 28H294C321.614 28 344 50.3858 344 78V92H220C202.327 92 188 77.6731 188 60Z" fill="#FF6161"/>
<path d="M229.035 80L218.83 44.6484H228.01L233.43 68.0859H233.723L239.875 44.6484H247.443L253.645 68.1348H253.889L259.357 44.6484H268.537L258.283 80H250.275L243.83 58.2227H243.537L237.092 80H229.035ZM294.992 80H282.053V44.6484H294.992C305.783 44.6484 312.424 51.2891 312.424 62.3242C312.424 73.3594 305.783 80 294.992 80ZM290.354 72.8711H294.699C300.754 72.8711 304.074 69.9902 304.074 62.3242C304.074 54.6582 300.754 51.7285 294.602 51.7285H290.354V72.8711Z" fill="white"/>
</svg>
